<!-- Generated by IcoMoon.io -->
<svg version="1.1" xmlns="http://www.w3.org/2000/svg" width="24" height="24" viewBox="0 0 24 24">
<path d="M17.743 0.017l-4.63 0.926v-0.944h-11.41v23.893h11.41v-14.993l3.022 15.099 6.161-1.233-4.553-22.75zM6.677 22.431h-3.511v-1.089h3.511v1.089zM6.677 19.879h-3.511v-18.416h3.511v18.416zM11.651 22.431h-3.511v-1.089h3.511v1.089zM11.651 19.879h-3.511v-18.416h3.485l0.026 0.128v18.288zM13.304 2.397l3.292-0.659 3.484 17.409-3.288 0.679-3.488-17.428zM17.079 21.26l3.288-0.679 0.208 1.038-3.292 0.659-0.204-1.018z"></path>
<path d="M3.961 2.974h1.95v1.463h-1.95v-1.463z"></path>
<path d="M8.935 2.974h1.95v1.463h-1.95v-1.463z"></path>
<path d="M14.356 3.74l1.856-0.358 0.277 1.436-1.856 0.358-0.277-1.436z"></path>
</svg>
