<!-- Generated by IcoMoon.io -->
<svg version="1.1" xmlns="http://www.w3.org/2000/svg" width="24" height="24" viewBox="0 0 24 24">
<path d="M24 12.836l-1.858-3.658-0.238-0.247-2.745-1.535-0.15-1.47 0.44-0.534v-0.294l-0.167-0.411-2.873-2.943-0.353-0.173-6.698-0.778-0.093 0.799-9.204 6.911-0.061 0.889 2.648 2.619-1.802 1.476 0.010 0.918 0.31 0.242 3.704 7.192 0.090 0.058-3.498-0.082 9.721 1.393 9.134-1.3-4.678-1.101 4.585-2.055 0.029 0.017 0.025-0.042 0.059-0.026 0.202-0.414 2.498-4.219-0.167-0.25 0.716-0.136 0.415-0.844zM15.713 2.715l2.208 2.262-2.586 0.506-3.45-3.212 3.827 0.444zM17.975 7.378l-2.039 0.808-2.097-2.489 0.915 0.851 0.514 0.147 2.587-0.506 0.121 1.189zM1.312 9.034l8.898-6.682 0.042 0.005 1.65 1.537-0.457-0.010-7.318 7.935-2.816-2.785zM2.153 13.993l-0.028-0.034 0.655-0.537 1.58 4.856-2.207-4.286zM3.909 13.092l0.718-0.044 0.192-0.243 7.039-7.633 2.924 3.471-6.133 2.43-0.113 1.034 0.894 0.606-0.3 2.849-3.058 4.175-2.162-6.643zM11.053 21.572l-0.055-0.082-0.461-0.261-3.962-0.192 3.597-4.91 0.11-0.286 0.353-3.357-0.255-0.549-0.264-0.179 5.465-2.165 0.172 0.205 1.34 2.143 0.651 0.256 1.719-0.461 0.95 1.747-1.367 0.199-0.486 0.723 0.846 3.424-8.354 3.744zM20.273 16.426l-0.414-1.675 1.538-0.224-1.124 1.899zM21.434 12.893l-1.157-2.128-0.669-0.287-1.747 0.469-1.132-1.809 1.833-0.726 2.612 1.461 1.422 2.8-1.163 0.221z"></path>
</svg>
